<svg width="23" height="22" fill="none" xmlns="http://www.w3.org/2000/svg"><path d="M21.017 1.9H18.63V0h-.84v1.9h-2.173V0h-.84v1.9H7.26V0h-.84v1.9H4.248V0h-.84v1.9h-2.38a1.02 1.02 0 0 0-.95.634A1.034 1.034 0 0 0 0 2.928v17.584a1.034 1.034 0 0 0 .635.955c.125.052.259.079.394.078h19.988a1.026 1.026 0 0 0 1.03-1.033V2.928a1.033 1.033 0 0 0-.637-.95 1.021 1.021 0 0 0-.393-.078Zm.203 18.612a.206.206 0 0 1-.203.203H1.03a.204.204 0 0 1-.202-.203V6.765H21.22v13.747Zm0-14.596H.827V2.928a.201.201 0 0 1 .202-.198h2.379v1.554h.84V2.73h2.173v1.554h.84V2.73h7.514v1.554h.841V2.73h2.172v1.554h.841V2.73h2.388a.201.201 0 0 1 .202.198v2.988Z" fill="#4E4E4E"/><path d="M18.64 10.204h-3.003v.845h3.003v-.845ZM12.778 10.166H9.775v.846h3.003v-.846ZM5.368 8.998a1.59 1.59 0 0 1 1.472.987 1.608 1.608 0 0 1-.345 1.744 1.59 1.59 0 0 1-2.72-1.132c0-.424.168-.83.467-1.13.298-.3.704-.47 1.126-.47Zm0-.785a2.368 2.368 0 0 0-2.194 1.472 2.394 2.394 0 0 0 .515 2.598 2.373 2.373 0 0 0 2.588.517 2.39 2.39 0 0 0 .77-3.888 2.37 2.37 0 0 0-1.68-.699Z" fill="#4E4E4E"/><path d="M6.004 10.168H4.752v.846h1.252v-.845ZM18.64 12.97h-3.003v.846h3.003v-.845ZM12.778 12.934H9.775v.845h3.003v-.845ZM18.64 15.738h-3.003v.845h3.003v-.845ZM12.778 15.7H9.775v.846h3.003V15.7ZM6.854 15.743H3.85v.845h3.003v-.845Z" fill="#4E4E4E"/></svg>