<svg width="54" height="52" fill="none" xmlns="http://www.w3.org/2000/svg"><path d="M53.165 49.99h-7.628c1.443-.911 2.405-2.502 2.405-4.315 0-2.833-2.345-5.134-5.231-5.134-2.894 0-5.231 2.302-5.231 5.134 0 1.813.953 3.403 2.396 4.314h-22.9c1.443-.91 2.406-2.5 2.406-4.314 0-2.833-2.346-5.134-5.232-5.134-2.894 0-5.23 2.302-5.23 5.134 0 1.813.952 3.403 2.396 4.314H1.123a.83.83 0 0 0-.835.82c0 .447.371.82.835.82h52.042a.83.83 0 0 0 .835-.82.829.829 0 0 0-.835-.82zm-10.463-6.385c1.165 0 2.11.927 2.11 2.07 0 1.143-.945 2.07-2.11 2.07-1.164 0-2.109-.928-2.109-2.07-.008-1.143.945-2.07 2.11-2.07zm-28.56 0c1.164 0 2.109.927 2.109 2.07 0 1.143-.945 2.07-2.11 2.07-1.164 0-2.109-.928-2.109-2.07 0-1.143.945-2.07 2.11-2.07zM2.464 14.902l7.113.082c1.224.017 2.227-.944 2.236-2.145.016-1.2-.97-2.186-2.186-2.194h-.033c.008-.042.008-.066.008-.108.017-1.598-1.29-2.906-2.92-2.931-1.586-.016-2.893 1.193-2.978 2.733a2.488 2.488 0 0 0-1.19-.315C1.148 10 .017 11.084 0 12.434c-.017 1.35 1.089 2.451 2.464 2.468zM41.75 2.555a.83.83 0 0 0 .835-.82V.857a.824.824 0 0 0-.835-.82.83.83 0 0 0-.835.82v.87a.826.826 0 0 0 .835.828zm-3.3.265a.839.839 0 0 0 .726.414.866.866 0 0 0 .422-.108A.807.807 0 0 0 39.9 2l-.447-.762A.839.839 0 0 0 38.307.94a.807.807 0 0 0-.304 1.126l.447.754zm-2.346 1.714.768.43a.867.867 0 0 0 .422.108c.287 0 .574-.15.726-.414a.823.823 0 0 0-.304-1.126l-.768-.44a.849.849 0 0 0-1.147.299.826.826 0 0 0 .303 1.143zm-.396 3.072h.886a.83.83 0 0 0 .835-.82.824.824 0 0 0-.835-.82h-.886a.83.83 0 0 0-.835.82c0 .447.37.82.835.82zM43.9 3.118a.867.867 0 0 0 .423.107.838.838 0 0 0 .725-.414l.447-.754a.823.823 0 0 0-.303-1.126.849.849 0 0 0-1.148.298l-.447.754a.816.816 0 0 0 .304 1.135zM42.433 8.07a2.539 2.539 0 0 0-1.249-.315c-1.443 0-2.607 1.151-2.607 2.56 0 1.407 1.172 2.558 2.607 2.558h7.459c1.283 0 2.32-1.018 2.32-2.277 0-1.259-1.046-2.277-2.32-2.277h-.034c.009-.042.009-.074.009-.116 0-1.681-1.392-3.04-3.097-3.04-1.662.009-3.02 1.292-3.088 2.907zm-4.008-1.292c0 .107.017.207.026.314a4.308 4.308 0 0 1 2.725-.985h.067a4.71 4.71 0 0 1 2.203-2.12 3.277 3.277 0 0 0-1.696-.472c-1.831 0-3.325 1.466-3.325 3.263zM3.072 35.182c0-.654.11-1.292.329-1.888l1.46-4.124a2.582 2.582 0 0 0-1.325-.364C2.11 28.806.954 29.94.954 31.34v7.197c0 1.242.92 2.277 2.126 2.484v-5.839h-.008z" fill="#596B86"/><path d="M7.747 26.016 4.979 33.85a4.02 4.02 0 0 0-.227 1.333v6.062h4.176a6.936 6.936 0 0 1 5.223-2.352c2.084 0 3.957.92 5.223 2.352h18.115a6.936 6.936 0 0 1 5.223-2.352c2.084 0 3.957.92 5.222 2.352h2.903v-2.468a4.64 4.64 0 0 0-.093-.91c-.405-1.988-2.126-3.52-4.252-3.67l-6.193-.43-4.928-8.447a4.175 4.175 0 0 0-3.594-2.046H11.662c-1.772.009-3.333 1.102-3.915 2.742zM22.57 27.15c0-.521.43-.952.97-.952h8.219c.422 0 .81.223 1.02.58l3.603 6.177c.372.638-.093 1.425-.843 1.425H23.542a.962.962 0 0 1-.97-.953V27.15zm-2.607 0v6.286c0 .521-.43.952-.97.952H9.3c-.666 0-1.13-.646-.911-1.259l2.168-6.153c.16-.463.608-.77 1.106-.77h7.332c.54-.008.97.414.97.944zm29.65 18.525a6.64 6.64 0 0 1-.186 1.54h2.042a1.02 1.02 0 0 0 1.03-1.01v-2.302c0-.555-.456-1.01-1.03-1.01h-2.472c.388.852.616 1.788.616 2.782zm-45.52-2.782a1.02 1.02 0 0 0-1.03 1.01v2.302c0 .555.456 1.01 1.03 1.01h3.324a6.558 6.558 0 0 1 .43-4.323H4.094zm16.351 0a6.69 6.69 0 0 1 .616 2.782 6.64 6.64 0 0 1-.185 1.54h15.11a6.558 6.558 0 0 1 .43-4.323h-15.97z" fill="#596B86"/></svg>