<svg width="50" height="50" fill="none" xmlns="http://www.w3.org/2000/svg"><path fill-rule="evenodd" clip-rule="evenodd" d="m6.435 24.61 9.77 9.473c.367.356.865.556 1.383.556h30.458c.518 0 1.015.2 1.382.554.366.356.572.838.572 1.34v5.684c0 .464-.176.911-.494 1.258a1.976 1.976 0 0 1-1.232.623l-.228.013H44.26l1.818 2.484.008.009a1.86 1.86 0 0 1-.49 2.645l-.038.026a2.005 2.005 0 0 1-1.45.308 1.963 1.963 0 0 1-1.254-.77l-3.436-4.696-.004-.004H10.908l-.004.004-3.436 4.696a1.963 1.963 0 0 1-1.254.77 2.005 2.005 0 0 1-1.45-.308l-.04-.026a1.891 1.891 0 0 1-.812-1.228 1.851 1.851 0 0 1 .33-1.424L6.06 44.11H3.1a1.966 1.966 0 0 1-1.693-.947 1.845 1.845 0 0 1 0-1.895 1.966 1.966 0 0 1 1.693-.947l3.908-3.789-6.435-6.239A1.865 1.865 0 0 1 0 28.955c0-.502.205-.984.572-1.34l3.1-3.004a1.985 1.985 0 0 1 1.381-.555c.518 0 1.015.2 1.382.555zm2.527 13.818-1.955 1.894h3.733a1.897 1.897 0 0 0-.397-.555l-1.381-1.34zm21.496-18.945v13.261H26.55V19.483H12.87c-.829 0-1.657-.683-1.89-1.465.35-3.927 2.092-7.616 4.93-10.438 2.84-2.823 6.599-4.605 10.64-5.044v-.104c0-.677.372-1.303.977-1.64a2.008 2.008 0 0 1 1.954 0c.605.337.977.963.977 1.64v.104c4.04.439 7.8 2.22 10.638 5.042 2.838 2.822 4.58 6.51 4.931 10.436-.23.786-1.06 1.468-1.89 1.468H30.459z" fill="#596B86"/></svg>