<svg width="56" height="49" fill="none" xmlns="http://www.w3.org/2000/svg"><path d="M48.645 7.54c0-.863-.704-1.554-1.583-1.554h-1.7V9.15h1.7c.88-.057 1.583-.748 1.583-1.61z" fill="#596B86"/><path d="M40.38 18.124h4.748v8.455l3.106.576v-9.031h4.748c1.348 0 2.403-1.093 2.403-2.359V3.34c0-1.323-1.114-2.358-2.403-2.358h-12.6c-1.349 0-2.404 1.093-2.404 2.358v12.367c-.058 1.323 1.055 2.416 2.403 2.416zM43.43 4.03h3.633c1.934 0 3.517 1.553 3.517 3.451 0 1.898-1.583 3.452-3.517 3.452h-1.7v4.026H43.43V4.03zm8.965 26.749-11.487-2.071c-.117 0-.234-.115-.293-.173-1.113-1.323-8.205-8.628-12.835-8.628H11.546c-3.81 0-7.268 3.509-9.436 6.442C.703 28.19 0 30.434 0 32.734v6.673c0 2.128 1.758 3.854 3.927 3.854h.879a6.452 6.452 0 0 0 6.27 4.832 6.452 6.452 0 0 0 6.272-4.832h21.158a6.452 6.452 0 0 0 6.27 4.832 6.452 6.452 0 0 0 6.272-4.832h.117c1.934 0 3.634-1.438 3.869-3.336l.644-4.832c.175-2.07-1.231-3.97-3.282-4.314zM10.96 45.044c-1.876 0-3.4-1.495-3.4-3.336 0-1.841 1.524-3.337 3.4-3.337 1.875 0 3.399 1.496 3.399 3.337.059 1.84-1.465 3.336-3.4 3.336zm7.677-15.416H8.44c-.527 0-.879-.518-.586-.978 1.524-2.646 5.334-5.234 7.209-5.234h2.579c.351 0 .644.23.703.575l.996 4.832c.06.403-.293.805-.703.805zm16.41 0H23.795a.692.692 0 0 1-.703-.575l-.997-4.832a.7.7 0 0 1 .704-.805h4.98c1.7 0 5.217 2.646 7.737 5.004.469.46.176 1.208-.468 1.208zm9.612 15.416c-1.876 0-3.4-1.495-3.4-3.336 0-1.841 1.525-3.337 3.4-3.337 1.876 0 3.4 1.496 3.4 3.337 0 1.84-1.525 3.336-3.4 3.336z" fill="#596B86"/></svg>