<svg width="70" height="49" fill="none" xmlns="http://www.w3.org/2000/svg"><path d="M69.996 11.828v-1.6c0-.23-.022-.445-.029-.672.002-.045.026-.083.026-.128v-6.4c0-1.322-1.1-2.401-2.446-2.401h-1.63c-2.24 0-4.075 4.322-4.075 9.601v14.485c1.598.318 2.857 1.55 3.181 3.12h.08v18.404c0 1.32 1.1 2.399 2.443 2.399h.006c1.345 0 2.448-1.08 2.448-2.4V11.829h-.004zM10.591.537a.81.81 0 0 0-.814.8V12.54c0 .443-.365.8-.815.8a.806.806 0 0 1-.815-.8V1.337a.81.81 0 0 0-.814-.8.81.81 0 0 0-.815.8V12.54c0 .443-.366.8-.815.8a.805.805 0 0 1-.814-.8V1.337a.81.81 0 0 0-.815-.8c-.45 0-.815.36-.815.8V12.54a.809.809 0 0 1-.814.8.805.805 0 0 1-.815-.8V1.337a.81.81 0 0 0-.817-.8.808.808 0 0 0-.813.8v14.862c0 1.534 1.37 2.836 3.26 3.328v26.62c0 1.321 1.1 2.4 2.447 2.4 1.344 0 2.446-1.08 2.446-2.4l-.004-26.62c1.89-.492 3.261-1.794 3.261-3.328V1.337a.816.816 0 0 0-.819-.8zM35 9.7c-6.445 0-11.668 5.128-11.668 11.454H46.67C46.668 14.829 41.445 9.7 35 9.7zm0 2.062c4.556 0 8.377 3.138 9.337 7.329H25.664c.96-4.19 4.78-7.33 9.336-7.33zM33.948.537h2.098V7.41h-2.098V.537zm-17.016 8.27 6.064 3.435-1.05 1.786-6.064-3.435 1.05-1.786zm8.638-6.433 3.5 5.952-1.819 1.03-3.5-5.951 1.82-1.03zm27.534 6.43 1.051 1.784-6.06 3.44-1.052-1.785 6.06-3.44zm-8.64-6.43 1.818 1.032-3.504 5.948-1.819-1.031 3.505-5.949zm7.259 23.361-6.609.002h-26.44v9.731c0 5.352 4.465 9.732 9.916 9.732h11.569a9.909 9.909 0 0 0 9.3-6.487h2.265c3.65 0 6.611-2.905 6.611-6.49 0-3.582-2.962-6.488-6.61-6.488h-.002zm0 8.6h-1.652v-4.218h1.652c1.187 0 2.15.944 2.15 2.106 0 1.168-.968 2.112-2.15 2.112z" fill="#596B86"/></svg>