<svg width="55" height="50" fill="none" xmlns="http://www.w3.org/2000/svg"><path fill-rule="evenodd" clip-rule="evenodd" d="M14.153 10.876c2.666 0 4.84-2.438 4.84-5.429 0-2.99-2.174-5.428-4.84-5.428-2.665 0-4.84 2.439-4.84 5.428 0 2.99 2.175 5.429 4.84 5.429zm-5.431 3.299c.993-2.046 3.466-2.904 5.525-1.917a4.11 4.11 0 0 1 1.815 1.7c.894 1.328 2.366 2.937 4.18 4.255 1.451 1.054 3.096 1.898 4.785 2.206a2.055 2.055 0 0 1 1.66 2.391 2.067 2.067 0 0 1-2.406 1.651c-2.368-.432-4.584-1.548-6.486-2.931a22.017 22.017 0 0 1-2.135-1.77 56.46 56.46 0 0 0-.331 2.005c-.413 2.76-.672 5.8-.672 7.194 0 1.901 1.685 4.674 3.062 8.143 1.243 3.133 2.125 6.741 2.185 10.428a2.402 2.402 0 0 1-2.373 2.432 2.403 2.403 0 0 1-2.448-2.357c-.05-3.041-.803-6.08-1.863-8.757a28.331 28.331 0 0 0-1.893-3.892c-.358 2.264-.99 4.695-1.94 6.938-1.267 2.99-3.11 5.694-5.64 7.369a2.424 2.424 0 0 1-3.346-.677 2.39 2.39 0 0 1 .68-3.325c1.656-1.096 2.933-3.03 3.862-5.227 1.873-4.422 1.417-5.9 1.417-11.076 0-1.673.298-5.225.77-8.386.383-2.566.92-5.017 1.591-6.398zM28.94 24.176h23.508v-4.071c0-.373.311-.679.692-.679.38 0 .691.305.691.679v4.071c.38 0 .692.306.692.68a.687.687 0 0 1-.692.678v6.786c.38 0 .692.305.692.679a.688.688 0 0 1-.692.679v6.786c.38 0 .692.305.692.678 0 .373-.311.68-.692.68v4.071a.688.688 0 0 1-.691.679.688.688 0 0 1-.692-.679v-4.072H28.94v4.072a.687.687 0 0 1-.692.678.688.688 0 0 1-.691-.678v-4.072a.687.687 0 0 1-.691-.679c0-.373.31-.679.69-.679v-6.787a.687.687 0 0 1-.69-.678c0-.374.31-.68.69-.68v-6.785a.687.687 0 0 1-.69-.679c0-.373.31-.678.69-.678v-4.072c0-.373.312-.679.692-.679.38 0 .692.305.692.679v4.072zm23.507 1.357H28.94v6.786h23.508l-.001-6.786zm0 8.143H28.94v6.786h23.508l-.001-6.786zM28.249 49.963c.761 0 1.382-.61 1.382-1.357s-.62-1.356-1.382-1.356c-.762 0-1.383.609-1.383 1.356 0 .748.62 1.357 1.383 1.357zm24.891 0c.761 0 1.382-.61 1.382-1.357s-.62-1.356-1.383-1.356c-.761 0-1.382.609-1.382 1.356 0 .748.62 1.357 1.382 1.357z" fill="#596B86"/><path fill-rule="evenodd" clip-rule="evenodd" d="M38.512 16.735c3.545.291 6.33 3.207 6.33 6.762H31.015c0-3.554 2.785-6.47 6.33-6.762a.665.665 0 0 1-.108-.363c0-.375.31-.679.692-.679.381 0 .691.304.691.68a.665.665 0 0 1-.107.362zm10.478-6.131c0 1.872 1.383 2.286 1.383 4.072v8.143a.688.688 0 0 1-.692.679h-3.457a.688.688 0 0 1-.692-.68v-3.053h3.458v-3.393h-3.458v-1.697c0-1.786 1.383-2.199 1.383-4.071V8.568h2.075v2.036zm-2.073-5.28h2.074v2.714h-2.074V5.324z" fill="#596B86"/></svg>