<svg width="59" height="50" fill="none" xmlns="http://www.w3.org/2000/svg"><path d="M32.337 46.464c0 1.738-1.436 3.148-3.207 3.148s-3.207-1.41-3.207-3.148c0-1.739 1.436-3.148 3.207-3.148s3.207 1.41 3.207 3.148zm10.309-15.621a21.621 21.621 0 0 0-13.515-4.728c-4.926 0-9.7 1.67-13.516 4.728a2.836 2.836 0 0 0-.44 4.077 2.968 2.968 0 0 0 4.161.36 15.7 15.7 0 0 1 9.795-3.417 15.7 15.7 0 0 1 9.795 3.418 2.964 2.964 0 0 0 2.16.68 2.944 2.944 0 0 0 2.007-1.036 2.836 2.836 0 0 0-.447-4.082z" fill="#596B86"/><path d="M55.236 24.652c.647-6.958-5.365-13.49-12.482-13.572C38.85-2.148 21.34-3.2 15.98 9.472c-8.389 1.96-13.227 7.75-11.93 14.57C.657 25.658-.382 29.214.12 31.958a6.47 6.47 0 0 0 2.26 3.967 6.7 6.7 0 0 0 4.354 1.546h7.439a.696.696 0 0 0 .63-.456.677.677 0 0 0-.198-.743 4.222 4.222 0 0 1-1.45-3.269 4.229 4.229 0 0 1 1.59-3.204 23.01 23.01 0 0 1 14.386-5.034A23.012 23.012 0 0 1 43.516 29.8c2.054 1.565 2.146 4.864.123 6.486a.67.67 0 0 0-.188.743c.1.262.352.438.637.443h7.349c3.837.175 6.764-3.255 6.814-6.957-.08-2.621-1.146-4.685-3.015-5.862zm-44.605.548a.693.693 0 0 1-.93.274 5.994 5.994 0 0 0-4.619-.41.671.671 0 0 0 .426-.822 5.628 5.628 0 0 1-.132-.657 7.574 7.574 0 0 1 4.975.702.668.668 0 0 1 .28.913zm14.518-13.616a.694.694 0 0 1-.935.26 11.704 11.704 0 0 0-7.56-1.146.682.682 0 0 0 .468-.409c.152-.369.312-.733.49-1.084a13.117 13.117 0 0 1 7.272 1.462c.33.18.45.592.265.917zm7.793 5.594a.697.697 0 0 1-.976.183.663.663 0 0 1-.142-.965c2.193-3.075 5.68-5.017 9.493-5.289.092.27.175.54.252.818a.709.709 0 0 0 .665.5c-3.703-.001-7.172 1.773-9.292 4.753zm18.18 7.59a.68.68 0 0 1-.688-.674.68.68 0 0 1 .688-.675c.95-.002 1.892.18 2.772.536-.005.328-.028.66-.065.989a.671.671 0 0 0 .321.647 5.889 5.889 0 0 0-3.028-.823z" fill="#596B86"/><path d="M36.122 37.021a12.613 12.613 0 0 0-6.992-2.109c-2.493 0-4.928.735-6.991 2.11A2.858 2.858 0 0 0 20.9 39.63a2.88 2.88 0 0 0 1.684 2.357 2.98 2.98 0 0 0 2.921-.253 6.654 6.654 0 0 1 3.624-1.07c1.29 0 2.55.372 3.624 1.07.637.438 1.425.61 2.191.478a2.94 2.94 0 0 0 1.894-1.182 2.837 2.837 0 0 0 .487-2.15 2.874 2.874 0 0 0-1.204-1.859z" fill="#596B86"/></svg>